<svg width="126" height="54" viewBox="0 0 126 54" fill="none" xmlns="http://www.w3.org/2000/svg">
<rect x="10" y="10" width="34" height="34" rx="8" fill="#292929"/>
<rect x="18" y="24" width="18" height="9" rx="3" fill="white"/>
<rect x="20" y="20" width="14" height="9" rx="3" fill="white" fill-opacity="0.24"/>
<path d="M52 31.1818V19.5454H59.7045V21.5738H54.4602V24.3465H59.1932V26.375H54.4602V31.1818H52Z" fill="white"/>
<path d="M64.6165 31.3522C63.7339 31.3522 62.9706 31.1647 62.3267 30.7897C61.6866 30.4109 61.1922 29.8844 60.8438 29.2102C60.4953 28.5322 60.321 27.7462 60.321 26.8522C60.321 25.9507 60.4953 25.1628 60.8438 24.4886C61.1922 23.8106 61.6866 23.284 62.3267 22.909C62.9706 22.5303 63.7339 22.3409 64.6165 22.3409C65.4991 22.3409 66.2604 22.5303 66.9006 22.909C67.5445 23.284 68.0407 23.8106 68.3892 24.4886C68.7377 25.1628 68.9119 25.9507 68.9119 26.8522C68.9119 27.7462 68.7377 28.5322 68.3892 29.2102C68.0407 29.8844 67.5445 30.4109 66.9006 30.7897C66.2604 31.1647 65.4991 31.3522 64.6165 31.3522ZM64.6278 29.4772C65.0294 29.4772 65.3646 29.3636 65.6335 29.1363C65.9025 28.9053 66.1051 28.5909 66.2415 28.1931C66.3816 27.7954 66.4517 27.3428 66.4517 26.8352C66.4517 26.3276 66.3816 25.875 66.2415 25.4772C66.1051 25.0795 65.9025 24.7651 65.6335 24.534C65.3646 24.303 65.0294 24.1875 64.6278 24.1875C64.2225 24.1875 63.8816 24.303 63.6051 24.534C63.3324 24.7651 63.1259 25.0795 62.9858 25.4772C62.8494 25.875 62.7812 26.3276 62.7812 26.8352C62.7812 27.3428 62.8494 27.7954 62.9858 28.1931C63.1259 28.5909 63.3324 28.9053 63.6051 29.1363C63.8816 29.3636 64.2225 29.4772 64.6278 29.4772Z" fill="white"/>
<path d="M76.0824 27.4659V22.4545H78.5028V31.1818H76.179V29.5965H76.0881C75.8911 30.1079 75.5634 30.5189 75.1051 30.8295C74.6506 31.1401 74.0956 31.2954 73.4403 31.2954C72.857 31.2954 72.3437 31.1628 71.9006 30.8977C71.4574 30.6325 71.1108 30.2556 70.8608 29.767C70.6146 29.2784 70.4896 28.6931 70.4858 28.0113V22.4545H72.9062V27.5795C72.91 28.0947 73.0483 28.5018 73.321 28.8011C73.5937 29.1003 73.9593 29.25 74.4176 29.25C74.7093 29.25 74.982 29.1837 75.2358 29.0511C75.4896 28.9147 75.6941 28.714 75.8494 28.4488C76.0085 28.1837 76.0862 27.856 76.0824 27.4659Z" fill="white"/>
<path d="M82.8594 26.1363V31.1818H80.4389V22.4545H82.7457V23.9943H82.848C83.0412 23.4867 83.3651 23.0852 83.8196 22.7897C84.2741 22.4905 84.8253 22.3409 85.473 22.3409C86.0791 22.3409 86.6075 22.4734 87.0582 22.7386C87.509 23.0037 87.8594 23.3825 88.1094 23.875C88.3594 24.3636 88.4844 24.9469 88.4844 25.625V31.1818H86.0639V26.0568C86.0677 25.5227 85.9313 25.106 85.6548 24.8068C85.3783 24.5037 84.9976 24.3522 84.5128 24.3522C84.187 24.3522 83.8991 24.4223 83.6491 24.5625C83.4029 24.7026 83.2098 24.9072 83.0696 25.1761C82.9332 25.4412 82.8632 25.7613 82.8594 26.1363Z" fill="white"/>
<path d="M93.608 31.3238C92.9451 31.3238 92.3447 31.1534 91.8068 30.8125C91.2727 30.4678 90.8485 29.9621 90.5341 29.2954C90.2235 28.625 90.0682 27.803 90.0682 26.8295C90.0682 25.8295 90.2292 24.9981 90.5511 24.3352C90.8731 23.6685 91.3011 23.1704 91.8352 22.8409C92.3731 22.5075 92.9621 22.3409 93.6023 22.3409C94.0909 22.3409 94.4981 22.4242 94.8239 22.5909C95.1534 22.7537 95.4186 22.9583 95.6193 23.2045C95.8239 23.4469 95.9792 23.6856 96.0852 23.9204H96.1591V19.5454H98.5739V31.1818H96.1875V29.784H96.0852C95.9716 30.0265 95.8106 30.267 95.6023 30.5056C95.3977 30.7405 95.1307 30.9356 94.8011 31.0909C94.4754 31.2462 94.0777 31.3238 93.608 31.3238ZM94.375 29.3977C94.7652 29.3977 95.0947 29.2916 95.3636 29.0795C95.6364 28.8636 95.8447 28.5625 95.9886 28.1761C96.1364 27.7897 96.2102 27.3371 96.2102 26.8181C96.2102 26.2992 96.1383 25.8484 95.9943 25.4659C95.8504 25.0833 95.642 24.7878 95.3693 24.5795C95.0966 24.3712 94.7652 24.267 94.375 24.267C93.9773 24.267 93.642 24.375 93.3693 24.5909C93.0966 24.8068 92.8902 25.106 92.75 25.4886C92.6098 25.8712 92.5398 26.3143 92.5398 26.8181C92.5398 27.3257 92.6098 27.7746 92.75 28.1647C92.8939 28.5511 93.1004 28.8541 93.3693 29.0738C93.642 29.2897 93.9773 29.3977 94.375 29.3977Z" fill="white"/>
<path d="M100.564 31.1818V22.4545H102.911V23.9772H103.001C103.161 23.4356 103.428 23.0265 103.803 22.75C104.178 22.4697 104.609 22.3295 105.098 22.3295C105.219 22.3295 105.35 22.3371 105.49 22.3522C105.63 22.3674 105.753 22.3882 105.859 22.4147V24.5625C105.746 24.5284 105.589 24.4981 105.388 24.4715C105.187 24.445 105.003 24.4318 104.837 24.4318C104.481 24.4318 104.162 24.5094 103.882 24.6647C103.606 24.8162 103.386 25.0284 103.223 25.3011C103.064 25.5738 102.984 25.8882 102.984 26.2443V31.1818H100.564Z" fill="white"/>
<path d="M108.871 34.4545C108.564 34.4545 108.276 34.4299 108.007 34.3806C107.742 34.3352 107.522 34.2765 107.348 34.2045L107.893 32.3977C108.178 32.4848 108.433 32.5322 108.661 32.5397C108.892 32.5473 109.09 32.4943 109.257 32.3806C109.428 32.267 109.566 32.0738 109.672 31.8011L109.814 31.4318L106.683 22.4545H109.229L111.036 28.8636H111.126L112.95 22.4545H115.513L112.121 32.125C111.958 32.5947 111.736 33.0037 111.456 33.3522C111.179 33.7045 110.829 33.9753 110.405 34.1647C109.981 34.3579 109.469 34.4545 108.871 34.4545Z" fill="white"/>
</svg>
